<svg width="900" height="560" viewBox="0 0 900 560" fill="none" xmlns="http://www.w3.org/2000/svg">
  <defs>
    <linearGradient id="bg" x1="0" x2="900" y1="0" y2="560" gradientUnits="userSpaceOnUse">
      <stop stop-color="#F8FAFC"/>
      <stop offset="1" stop-color="#EFF6FF"/>
    </linearGradient>
    <linearGradient id="pen" x1="536" x2="746" y1="404" y2="194" gradientUnits="userSpaceOnUse">
      <stop stop-color="#991B1B"/>
      <stop offset="1" stop-color="#EF4444"/>
    </linearGradient>
  </defs>
  <rect width="900" height="560" fill="url(#bg)"/>
  <rect x="100" y="70" width="700" height="420" rx="34" fill="#FFFFFF" stroke="#CBD5E1" stroke-width="3"/>
  <rect x="154" y="124" width="374" height="302" rx="20" fill="#F8FAFC" stroke="#D8DEE8" stroke-width="3"/>
  <rect x="190" y="164" width="214" height="22" rx="11" fill="#111827"/>
  <rect x="190" y="222" width="278" height="16" rx="8" fill="#94A3B8"/>
  <rect x="190" y="262" width="236" height="16" rx="8" fill="#CBD5E1"/>
  <rect x="190" y="302" width="284" height="16" rx="8" fill="#CBD5E1"/>
  <rect x="190" y="342" width="198" height="16" rx="8" fill="#CBD5E1"/>
  <path d="M574 366L690 250L746 306L630 422L552 444L574 366Z" fill="url(#pen)"/>
  <path d="M690 250L720 220C738 202 766 202 784 220C802 238 802 266 784 284L746 306L690 250Z" fill="#111827"/>
  <path d="M574 366L630 422L552 444L574 366Z" fill="#F7B267"/>
  <path d="M562 426L552 444L584 436L562 426Z" fill="#111827"/>
  <circle cx="632" cy="164" r="54" fill="#DBEAFE"/>
  <path d="M606 164H658" stroke="#DC2626" stroke-width="11" stroke-linecap="round"/>
  <path d="M632 138V190" stroke="#DC2626" stroke-width="11" stroke-linecap="round"/>
  <rect x="568" y="210" width="70" height="16" rx="8" fill="#CBD5E1"/>
  <rect x="568" y="236" width="104" height="16" rx="8" fill="#94A3B8"/>
  <path d="M142 466H758" stroke="#172033" stroke-width="12" stroke-linecap="round"/>
</svg>
